HIERARCHY
ROOT Pelvis
{
	OFFSET 0.000000 0.000000 0.000000
	CHANNELS 6 Xposition Yposition Zposition Xrotation Yrotation Zrotation
	JOINT LeftUpLeg_virtual
	{
		OFFSET 0.000000 0.000000 0.000000
		CHANNELS 3 Xrotation Yrotation Zrotation
		JOINT LeftUpLeg
		{
			OFFSET 18.735201 -5.666702 -4.541200
			CHANNELS 3 Xrotation Yrotation Zrotation
			JOINT LeftLeg
			{
				OFFSET -0.021200 -31.938179 0.493100
				CHANNELS 3 Xrotation Yrotation Zrotation
				JOINT LeftFoot
				{
					OFFSET 0.021200 -31.938179 -4.336299
					CHANNELS 3 Xrotation Yrotation Zrotation
					JOINT LeftToeBase
					{
						OFFSET 0.943001 -26.722000 15.023500
						CHANNELS 3 Xrotation Yrotation Zrotation
						End Site
						{
							OFFSET 0 0 0
						}
					}
				}
			}
		}
	}
	JOINT RightUpLeg_virtual
	{
		OFFSET 0.000000 0.000000 0.000000
		CHANNELS 3 Xrotation Yrotation Zrotation
		JOINT RightUpLeg
		{
			OFFSET -18.735201 -5.666702 -4.541200
			CHANNELS 3 Xrotation Yrotation Zrotation
			JOINT RightLeg
			{
				OFFSET 0.018946 -31.938133 0.493100
				CHANNELS 3 Xrotation Yrotation Zrotation
				JOINT RightFoot
				{
					OFFSET -0.018946 -31.938126 -4.336299
					CHANNELS 3 Xrotation Yrotation Zrotation
					JOINT RightToeBase
					{
						OFFSET -0.943001 -26.722004 15.023500
						CHANNELS 3 Xrotation Yrotation Zrotation
						End Site
						{
							OFFSET 0 0 0
						}
					}
				}
			}
		}
	}
	JOINT Hips_virtual
	{
		OFFSET 0.000000 0.000000 0.000000
		CHANNELS 3 Xrotation Yrotation Zrotation
		JOINT Hips
		{
			OFFSET -0.000000 -0.000000 -0.000000
			CHANNELS 3 Xrotation Yrotation Zrotation
			JOINT Spine
			{
				OFFSET 0.000000 10.199997 -0.299500
				CHANNELS 3 Xrotation Yrotation Zrotation
				JOINT Spine1
				{
					OFFSET 0.000000 11.900002 -1.516600
					CHANNELS 3 Xrotation Yrotation Zrotation
					JOINT Spine2
					{
						OFFSET 0.000000 13.600006 -2.842500
						CHANNELS 3 Xrotation Yrotation Zrotation
						JOINT Neck_virtual
						{
							OFFSET 0.000000 0.000000 0.000000
							CHANNELS 3 Xrotation Yrotation Zrotation
							JOINT Neck
							{
								OFFSET 0.000000 9.624100 -2.890100
								CHANNELS 3 Xrotation Yrotation Zrotation
								JOINT Head
								{
									OFFSET 0.000000 14.068802 -1.351900
									CHANNELS 3 Xrotation Yrotation Zrotation
									End Site
									{
										OFFSET 0 0 0
									}
								}
							}
						}
						JOINT LeftShoulder_virtual
						{
							OFFSET 0.000000 0.000000 0.000000
							CHANNELS 3 Xrotation Yrotation Zrotation
							JOINT LeftShoulder
							{
								OFFSET 15.263000 10.923401 -0.547700
								CHANNELS 3 Xrotation Yrotation Zrotation
								JOINT LeftArm
								{
									OFFSET 25.438599 -2.830597 -13.032500
									CHANNELS 3 Xrotation Yrotation Zrotation
									JOINT LeftForeArm
									{
										OFFSET 29.960503 0.000000 0.000000
										CHANNELS 3 Xrotation Yrotation Zrotation
										JOINT LeftHand
										{
											OFFSET 27.849251 0.000000 0.000000
											CHANNELS 3 Xrotation Yrotation Zrotation
											End Site
											{
												OFFSET 0 0 0
											}
										}
									}
								}
							}
						}
						JOINT RightShoulder_virtual
						{
							OFFSET 0.000000 0.000000 0.000000
							CHANNELS 3 Xrotation Yrotation Zrotation
							JOINT RightShoulder
							{
								OFFSET -15.263000 10.923401 -0.547700
								CHANNELS 3 Xrotation Yrotation Zrotation
								JOINT RightArm
								{
									OFFSET -25.438599 -2.830597 -13.032500
									CHANNELS 3 Xrotation Yrotation Zrotation
									JOINT RightForeArm
									{
										OFFSET -29.960503 0.000000 0.000000
										CHANNELS 3 Xrotation Yrotation Zrotation
										JOINT RightHand
										{
											OFFSET -27.849251 0.000000 0.000000
											CHANNELS 3 Xrotation Yrotation Zrotation
											End Site
											{
												OFFSET 0 0 0
											}
										}
									}
								}
							}
						}
					}
				}
			}
		}
	}
}
MOTION
Frames: 13
Frame Time: 0.03333333
0.506620 85.830299 15.784988 0.000000 0.000000 0.000000 1.561362 -41.332289 -13.489117 -45.798580 6.938713 27.090508 69.983006 -0.391876 18.856137 -16.173861 44.534954 -28.319096 0.000000 0.000000 0.000000 -0.285963 -40.330225 -14.011600 -8.475178 9.678637 22.288932 -15.743537 -6.088340 -3.327485 24.427369 17.362507 12.675938 0.000000 0.000000 0.000000 1.384047 -39.248418 -13.357889 -0.825256 0.132256 -0.054971 23.666435 -2.672860 15.517179 10.966839 -1.792717 7.176129 0.000000 0.000000 0.000000 5.872408 -5.769425 9.886695 4.896018 -3.725999 -1.456443 0.000000 0.000000 0.000000 6.661879 -5.747192 12.129315 5.477811 -33.574621 -8.170522 -15.605667 -6.398906 -61.415483 3.560138 -38.965369 1.509376 0.000000 0.000000 0.000000 7.816756 -6.161739 8.029006 6.027156 16.951884 0.370557 -6.920229 43.756166 52.300077 10.918850 11.419265 -18.596472 0.000000 0.000000 0.000000 
0.367444 85.920593 15.720993 0.000000 0.000000 0.000000 1.650522 -41.137820 -13.432563 -45.664179 6.811263 27.003149 69.692627 -0.304503 18.935291 -16.191378 44.232862 -28.082763 0.000000 0.000000 0.000000 -0.198730 -40.132791 -13.949301 -8.404978 9.815409 22.524555 -15.860956 -6.126990 -3.476412 24.485415 16.902874 12.235808 0.000000 0.000000 0.000000 1.469895 -39.014638 -13.303205 -0.824785 0.134897 -0.051965 23.722852 -2.578189 15.582342 10.919222 -1.766478 7.186712 0.000000 0.000000 0.000000 5.684272 -5.886031 9.915534 4.937398 -3.725137 -1.486653 0.000000 0.000000 0.000000 6.461917 -5.868998 12.143293 5.334311 -33.319118 -8.445287 -15.672245 -7.160112 -61.533420 3.091924 -38.448224 1.364200 0.000000 0.000000 0.000000 7.719976 -6.275849 8.090097 6.078805 17.291595 -0.132166 -6.827128 43.435471 52.184954 10.637787 11.623491 -18.195916 0.000000 0.000000 0.000000 
0.234946 86.032051 15.642754 0.000000 0.000000 0.000000 1.744746 -40.889587 -13.359652 -45.471547 6.638258 26.868023 69.299830 -0.200163 19.014420 -16.101232 43.835321 -27.875276 0.000000 0.000000 0.000000 -0.107723 -39.877462 -13.867695 -8.345776 9.936466 22.742138 -15.941923 -6.170771 -3.634625 24.590035 16.417464 11.743950 0.000000 0.000000 0.000000 1.563108 -38.730615 -13.223565 -0.825092 0.138272 -0.047815 23.774335 -2.463177 15.654479 10.862052 -1.724646 7.193862 0.000000 0.000000 0.000000 5.498311 -5.992381 9.944550 4.970680 -3.728614 -1.515248 0.000000 0.000000 0.000000 6.259178 -5.978332 12.154802 5.193045 -33.076318 -8.712438 -15.621247 -7.844127 -61.671677 2.628722 -37.957383 1.237091 0.000000 0.000000 0.000000 7.644279 -6.379242 8.149142 6.127125 17.571884 -0.582554 -6.695845 43.131753 51.987435 10.366025 11.895331 -17.759981 0.000000 0.000000 0.000000 
0.107424 86.159966 15.564312 0.000000 0.000000 0.000000 1.835504 -40.595947 -13.280649 -45.216115 6.402938 26.678420 68.840862 -0.065731 19.101683 -15.958918 43.351112 -27.646741 0.000000 0.000000 0.000000 -0.022065 -39.577381 -13.781718 -8.289415 10.043556 22.946205 -16.000900 -6.202909 -3.793618 24.776048 15.942797 11.224193 0.000000 0.000000 0.000000 1.651329 -38.408141 -13.135240 -0.825694 0.142644 -0.043196 23.817452 -2.328022 15.745695 10.792723 -1.667438 7.195819 0.000000 0.000000 0.000000 5.314349 -6.087907 9.971398 4.997086 -3.734215 -1.540644 0.000000 0.000000 0.000000 6.054206 -6.073969 12.160418 5.055749 -32.851164 -8.965824 -15.455487 -8.458143 -61.813635 2.171859 -37.497339 1.121764 0.000000 0.000000 0.000000 7.586772 -6.470514 8.205671 6.170051 17.789277 -0.976587 -6.541238 42.845831 51.719640 10.104487 12.227306 -17.291425 0.000000 0.000000 0.000000 
-0.012383 86.299805 15.492413 0.000000 0.000000 0.000000 1.919519 -40.270799 -13.204905 -44.889960 6.064616 26.423179 68.346582 0.092978 19.209805 -15.840655 42.771529 -27.372683 0.000000 0.000000 0.000000 0.054199 -39.248306 -13.705563 -8.225225 10.148398 23.134021 -16.074982 -6.210313 -3.949597 25.056856 15.499511 10.697587 0.000000 0.000000 0.000000 1.727833 -38.058545 -13.054426 -0.827016 0.148148 -0.038553 23.843683 -2.177035 15.872668 10.710998 -1.594888 7.190909 0.000000 0.000000 0.000000 5.134902 -6.169628 9.993559 5.020796 -3.738438 -1.563069 0.000000 0.000000 0.000000 5.843330 -6.154370 12.157107 4.921339 -32.648414 -9.206156 -15.186178 -9.010478 -61.936934 1.715984 -37.070326 1.008128 0.000000 0.000000 0.000000 7.540972 -6.548412 8.258121 6.204668 17.945292 -1.313848 -6.372825 42.567764 51.395886 9.854002 12.606444 -16.800641 0.000000 0.000000 0.000000 
-0.124641 86.446938 15.441650 0.000000 0.000000 0.000000 1.991539 -39.929303 -13.143486 -44.512008 5.626828 26.120477 67.865579 0.281703 19.330921 -15.770664 42.097287 -27.031847 0.000000 0.000000 0.000000 0.118822 -38.901889 -13.646836 -8.149206 10.252446 23.308319 -16.157320 -6.191414 -4.094126 25.390919 15.092061 10.184948 0.000000 0.000000 0.000000 1.790124 -37.689380 -12.991944 -0.828564 0.154871 -0.035548 23.846605 -2.018643 16.042724 10.614623 -1.508732 7.178439 0.000000 0.000000 0.000000 4.960571 -6.237675 10.007942 5.045190 -3.739126 -1.584944 0.000000 0.000000 0.000000 5.619740 -6.218839 12.144903 4.786304 -32.464736 -9.444521 -14.823011 -9.518753 -62.018746 1.256486 -36.669544 0.885948 0.000000 0.000000 0.000000 7.496215 -6.614721 8.305105 6.227404 18.050120 -1.584379 -6.209403 42.277560 51.058205 9.614810 13.035481 -16.298339 0.000000 0.000000 0.000000 
-0.224781 86.597504 15.412956 0.000000 0.000000 0.000000 2.047536 -39.580492 -13.104433 -44.114983 5.121119 25.799189 67.428386 0.524648 19.435742 -15.737345 41.344252 -26.589679 0.000000 0.000000 0.000000 0.171847 -38.541019 -13.605757 -8.066678 10.328261 23.467975 -16.217809 -6.162347 -4.216544 25.719859 14.704192 9.701376 0.000000 0.000000 0.000000 1.839435 -37.307268 -12.952807 -0.830023 0.162018 -0.033194 23.830551 -1.867092 16.247695 10.503476 -1.413305 7.160036 0.000000 0.000000 0.000000 4.790577 -6.293911 10.015877 5.073344 -3.732800 -1.607775 0.000000 0.000000 0.000000 5.383866 -6.270087 12.128954 4.646407 -32.289706 -9.701500 -14.382114 -10.008444 -62.037727 0.781605 -36.285438 0.742720 0.000000 0.000000 0.000000 7.441242 -6.672712 8.346758 6.235640 18.126724 -1.768807 -6.045875 41.949820 50.734024 9.388837 13.532095 -15.794941 0.000000 0.000000 0.000000 
-0.311738 86.748367 15.404034 0.000000 0.000000 0.000000 2.084967 -39.220083 -13.091308 -43.735101 4.571286 25.472338 67.052035 0.835788 19.502289 -15.734633 40.532371 -26.003838 0.000000 0.000000 0.000000 0.217158 -38.161974 -13.579305 -7.958168 10.337566 23.605166 -16.245742 -6.141131 -4.303225 25.994064 14.314650 9.246545 0.000000 0.000000 0.000000 1.876596 -36.915065 -12.933889 -0.830381 0.168709 -0.030820 23.808267 -1.730019 16.473243 10.377123 -1.314669 7.137231 0.000000 0.000000 0.000000 4.624294 -6.343023 10.019780 5.107323 -3.718243 -1.635049 0.000000 0.000000 0.000000 5.135492 -6.310855 12.115007 4.493639 -32.111260 -10.009434 -13.872622 -10.498516 -61.978120 0.285088 -35.901086 0.572176 0.000000 0.000000 0.000000 7.366029 -6.727588 8.383054 6.227121 18.196742 -1.855372 -5.856259 41.564686 50.419917 9.173424 14.115868 -15.296169 0.000000 0.000000 0.000000 
-0.383320 86.906517 15.413048 0.000000 0.000000 0.000000 2.095979 -38.826589 -13.103954 -43.367262 3.989449 25.133071 66.727280 1.220735 19.524753 -15.781938 39.683945 -25.227872 0.000000 0.000000 0.000000 0.254061 -37.748335 -13.565058 -7.798003 10.269498 23.716428 -16.247149 -6.126956 -4.337390 26.198668 13.930376 8.821399 0.000000 0.000000 0.000000 1.902093 -36.498577 -12.928196 -0.829377 0.174258 -0.027439 23.799014 -1.612388 16.706334 10.232043 -1.219566 7.114752 0.000000 0.000000 0.000000 4.459526 -6.390408 10.022552 5.145606 -3.695526 -1.670148 0.000000 0.000000 0.000000 4.879406 -6.347602 12.110109 4.322798 -31.911518 -10.397394 -13.321648 -11.013904 -61.823840 -0.241586 -35.501889 0.368587 0.000000 0.000000 0.000000 7.259617 -6.785595 8.416969 6.202575 18.274147 -1.848041 -5.615504 41.110246 50.103867 8.958363 14.783830 -14.800958 0.000000 0.000000 0.000000 
-0.437196 87.075836 15.433167 0.000000 0.000000 0.000000 2.083100 -38.387760 -13.132122 -42.972514 3.384941 24.771583 66.408488 1.655001 19.505260 -15.886781 38.792944 -24.305701 0.000000 0.000000 0.000000 0.273943 -37.295988 -13.558640 -7.570559 10.139022 23.790628 -16.223899 -6.104233 -4.315174 26.368289 13.568739 8.436878 0.000000 0.000000 0.000000 1.905356 -36.047829 -12.932944 -0.826506 0.178283 -0.021716 23.822785 -1.517097 16.939646 10.066213 -1.137562 7.097814 0.000000 0.000000 0.000000 4.296293 -6.442603 10.027424 5.185165 -3.667898 -1.715007 0.000000 0.000000 0.000000 4.623502 -6.386936 12.117504 4.128706 -31.681091 -10.889625 -12.751957 -11.553590 -61.567660 -0.798543 -35.067277 0.136124 0.000000 0.000000 0.000000 7.117620 -6.852774 8.449739 6.163803 18.363700 -1.759730 -5.305656 40.601377 49.776585 8.733672 15.511868 -14.310109 0.000000 0.000000 0.000000 
-0.475568 87.264694 15.460182 0.000000 0.000000 0.000000 2.040534 -37.874099 -13.159782 -42.496061 2.781015 24.389094 66.020062 2.075258 19.443675 -16.054711 37.807262 -23.367023 0.000000 0.000000 0.000000 0.271543 -36.778479 -13.549454 -7.278219 9.975211 23.815818 -16.186992 -6.041626 -4.240120 26.575549 13.248923 8.091531 0.000000 0.000000 0.000000 1.879960 -35.529223 -12.938543 -0.822346 0.181570 -0.015830 23.888631 -1.443536 17.171230 9.875468 -1.076705 7.085216 0.000000 0.000000 0.000000 4.129857 -6.503378 10.031162 5.220463 -3.640173 -1.770683 0.000000 0.000000 0.000000 4.371496 -6.433839 12.137878 3.915045 -31.414396 -11.482292 -12.202567 -12.119501 -61.203283 -1.381312 -34.601298 -0.114156 0.000000 0.000000 0.000000 6.944400 -6.933046 8.480115 6.114135 18.457610 -1.612228 -4.960123 40.061894 49.476309 8.478699 16.260578 -13.823307 0.000000 0.000000 0.000000 
-0.501734 87.472771 15.485378 0.000000 0.000000 0.000000 1.960175 -37.274064 -13.172985 -41.913804 2.214825 24.013618 65.505448 2.436983 19.318840 -16.205117 36.686449 -22.545642 0.000000 0.000000 0.000000 0.226768 -36.180140 -13.531609 -6.898185 9.808182 23.779059 -16.132893 -5.932208 -4.121136 26.808615 12.949622 7.763932 0.000000 0.000000 0.000000 1.817463 -34.922347 -12.933703 -0.819140 0.184131 -0.011234 23.995795 -1.389699 17.388210 9.663351 -1.039405 7.074769 0.000000 0.000000 0.000000 3.965060 -6.573704 10.028694 5.248045 -3.618554 -1.836282 0.000000 0.000000 0.000000 4.131897 -6.489978 12.166350 3.690676 -31.113653 -12.155481 -11.714206 -12.707698 -60.741070 -1.975459 -34.118291 -0.366031 0.000000 0.000000 0.000000 6.746225 -7.026908 8.505571 6.054748 18.544237 -1.418144 -4.610031 39.517504 49.258365 8.179645 16.987606 -13.347468 0.000000 0.000000 0.000000 
-0.513112 87.699043 15.505642 0.000000 0.000000 0.000000 1.826583 -36.578617 -13.156514 -41.213614 1.759326 23.689099 64.837797 2.713503 19.103134 -16.243643 35.409039 -21.927503 0.000000 0.000000 0.000000 0.119040 -35.485626 -13.492081 -6.406540 9.649510 23.655995 -16.058140 -5.797879 -3.977217 26.991454 12.617171 7.426055 0.000000 0.000000 0.000000 1.695286 -34.215197 -12.906247 -0.815779 0.188997 -0.009778 24.141022 -1.351281 17.563200 9.437766 -1.026951 7.060443 0.000000 0.000000 0.000000 3.807333 -6.654949 10.012433 5.266010 -3.610911 -1.908142 0.000000 0.000000 0.000000 3.916263 -6.554638 12.196297 3.469494 -30.787334 -12.868455 -11.329913 -13.323145 -60.214155 -2.555162 -33.628068 -0.595539 0.000000 0.000000 0.000000 6.532870 -7.133348 8.521715 5.989625 18.616391 -1.176292 -4.277071 38.969760 49.175159 7.831711 17.679344 -12.888891 0.000000 0.000000 0.000000 
